<mxfile host="app.diagrams.net" modified="2024-02-03T20:29:05.652Z" agent="Mozilla/5.0 (X11; Linux x86_64; rv:121.0) Gecko/20100101 Firefox/121.0" etag="Db7Hs4eycrd2NNR6w3K0" version="23.1.1" type="device">
  <diagram id="aoEpwyaVwkygxryid49U" name="Page-1">
    <mxGraphModel dx="1430" dy="793" grid="1" gridSize="10" guides="1" tooltips="1" connect="1" arrows="1" fold="1" page="1" pageScale="1" pageWidth="850" pageHeight="1100" math="0" shadow="0">
      <root>
        <mxCell id="0" />
        <mxCell id="1" parent="0" />
        <mxCell id="NaTh2jjpvzgjg7sWAXUI-25" style="edgeStyle=orthogonalEdgeStyle;rounded=0;orthogonalLoop=1;jettySize=auto;html=1;" parent="1" source="NaTh2jjpvzgjg7sWAXUI-26" target="NaTh2jjpvzgjg7sWAXUI-29" edge="1">
          <mxGeometry relative="1" as="geometry" />
        </mxCell>
        <mxCell id="NaTh2jjpvzgjg7sWAXUI-26" value="" style="ellipse;fillColor=strokeColor;" parent="1" vertex="1">
          <mxGeometry x="60" y="660" width="30" height="30" as="geometry" />
        </mxCell>
        <mxCell id="8myoIXHwX_xvSEYw4F4F-2" style="edgeStyle=orthogonalEdgeStyle;rounded=0;orthogonalLoop=1;jettySize=auto;html=1;exitX=0.5;exitY=0;exitDx=0;exitDy=0;" parent="1" source="NaTh2jjpvzgjg7sWAXUI-29" target="8myoIXHwX_xvSEYw4F4F-1" edge="1">
          <mxGeometry relative="1" as="geometry" />
        </mxCell>
        <mxCell id="8myoIXHwX_xvSEYw4F4F-3" value="[!queue.isEmpty() &amp;amp;&amp;amp; (!crq.contains(id) || crqPos == 0] &amp;amp;&amp;amp; len(dtqPos) &amp;lt; k" style="edgeLabel;html=1;align=center;verticalAlign=middle;resizable=0;points=[];" parent="8myoIXHwX_xvSEYw4F4F-2" vertex="1" connectable="0">
          <mxGeometry x="-0.3187" relative="1" as="geometry">
            <mxPoint x="41" y="-15" as="offset" />
          </mxGeometry>
        </mxCell>
        <mxCell id="8myoIXHwX_xvSEYw4F4F-7" style="edgeStyle=orthogonalEdgeStyle;rounded=0;orthogonalLoop=1;jettySize=auto;html=1;" parent="1" source="NaTh2jjpvzgjg7sWAXUI-29" target="8myoIXHwX_xvSEYw4F4F-6" edge="1">
          <mxGeometry relative="1" as="geometry">
            <Array as="points">
              <mxPoint x="205" y="730" />
              <mxPoint x="205" y="730" />
            </Array>
          </mxGeometry>
        </mxCell>
        <mxCell id="8myoIXHwX_xvSEYw4F4F-8" value="[dtqPos &amp;lt; t]" style="edgeLabel;html=1;align=center;verticalAlign=middle;resizable=0;points=[];" parent="8myoIXHwX_xvSEYw4F4F-7" vertex="1" connectable="0">
          <mxGeometry x="-0.5795" y="1" relative="1" as="geometry">
            <mxPoint x="-1" y="12" as="offset" />
          </mxGeometry>
        </mxCell>
        <mxCell id="8myoIXHwX_xvSEYw4F4F-10" style="edgeStyle=orthogonalEdgeStyle;rounded=0;orthogonalLoop=1;jettySize=auto;html=1;" parent="1" source="NaTh2jjpvzgjg7sWAXUI-29" target="8myoIXHwX_xvSEYw4F4F-9" edge="1">
          <mxGeometry relative="1" as="geometry" />
        </mxCell>
        <mxCell id="8myoIXHwX_xvSEYw4F4F-11" value="[else]" style="edgeLabel;html=1;align=center;verticalAlign=middle;resizable=0;points=[];" parent="8myoIXHwX_xvSEYw4F4F-10" vertex="1" connectable="0">
          <mxGeometry x="-0.4844" y="1" relative="1" as="geometry">
            <mxPoint x="32" y="-14" as="offset" />
          </mxGeometry>
        </mxCell>
        <mxCell id="NaTh2jjpvzgjg7sWAXUI-29" value="Idle" style="html=1;align=center;verticalAlign=top;rounded=1;absoluteArcSize=1;arcSize=10;dashed=0;fillColor=#f5f5f5;fontColor=#333333;strokeColor=#666666;" parent="1" vertex="1">
          <mxGeometry x="140" y="655" width="130" height="40" as="geometry" />
        </mxCell>
        <mxCell id="8myoIXHwX_xvSEYw4F4F-12" style="edgeStyle=orthogonalEdgeStyle;rounded=0;orthogonalLoop=1;jettySize=auto;html=1;" parent="1" source="8myoIXHwX_xvSEYw4F4F-17" target="8myoIXHwX_xvSEYw4F4F-9" edge="1">
          <mxGeometry relative="1" as="geometry">
            <Array as="points">
              <mxPoint x="485" y="560" />
            </Array>
          </mxGeometry>
        </mxCell>
        <mxCell id="8myoIXHwX_xvSEYw4F4F-18" style="edgeStyle=orthogonalEdgeStyle;rounded=0;orthogonalLoop=1;jettySize=auto;html=1;" parent="1" source="8myoIXHwX_xvSEYw4F4F-1" target="8myoIXHwX_xvSEYw4F4F-17" edge="1">
          <mxGeometry relative="1" as="geometry" />
        </mxCell>
        <mxCell id="8myoIXHwX_xvSEYw4F4F-1" value="Reserving" style="html=1;align=center;verticalAlign=top;rounded=1;absoluteArcSize=1;arcSize=10;dashed=0;fillColor=#f5f5f5;fontColor=#333333;strokeColor=#666666;" parent="1" vertex="1">
          <mxGeometry x="140" y="540" width="130" height="40" as="geometry" />
        </mxCell>
        <mxCell id="8myoIXHwX_xvSEYw4F4F-13" style="edgeStyle=orthogonalEdgeStyle;rounded=0;orthogonalLoop=1;jettySize=auto;html=1;" parent="1" source="8myoIXHwX_xvSEYw4F4F-6" target="8myoIXHwX_xvSEYw4F4F-9" edge="1">
          <mxGeometry relative="1" as="geometry">
            <Array as="points">
              <mxPoint x="485" y="760" />
            </Array>
          </mxGeometry>
        </mxCell>
        <mxCell id="8myoIXHwX_xvSEYw4F4F-6" value="TransmittingData" style="html=1;align=center;verticalAlign=top;rounded=1;absoluteArcSize=1;arcSize=10;dashed=0;fillColor=#f5f5f5;fontColor=#333333;strokeColor=#666666;" parent="1" vertex="1">
          <mxGeometry x="190" y="740" width="130" height="40" as="geometry" />
        </mxCell>
        <mxCell id="8myoIXHwX_xvSEYw4F4F-14" style="edgeStyle=orthogonalEdgeStyle;rounded=0;orthogonalLoop=1;jettySize=auto;html=1;" parent="1" source="8myoIXHwX_xvSEYw4F4F-9" target="NaTh2jjpvzgjg7sWAXUI-29" edge="1">
          <mxGeometry relative="1" as="geometry">
            <Array as="points">
              <mxPoint x="570" y="675" />
              <mxPoint x="570" y="810" />
              <mxPoint x="160" y="810" />
            </Array>
          </mxGeometry>
        </mxCell>
        <mxCell id="8myoIXHwX_xvSEYw4F4F-15" value="/ collisionTreeAlgorithm(FBP)" style="edgeLabel;html=1;align=center;verticalAlign=middle;resizable=0;points=[];" parent="8myoIXHwX_xvSEYw4F4F-14" vertex="1" connectable="0">
          <mxGeometry x="0.0761" y="3" relative="1" as="geometry">
            <mxPoint x="126" y="-13" as="offset" />
          </mxGeometry>
        </mxCell>
        <mxCell id="8myoIXHwX_xvSEYw4F4F-9" value="ListeningFBP" style="html=1;align=center;verticalAlign=top;rounded=1;absoluteArcSize=1;arcSize=10;dashed=0;fillColor=#f5f5f5;fontColor=#333333;strokeColor=#666666;" parent="1" vertex="1">
          <mxGeometry x="420" y="655" width="130" height="40" as="geometry" />
        </mxCell>
        <mxCell id="8myoIXHwX_xvSEYw4F4F-16" value="MSDQ Node" style="shape=umlFrame;whiteSpace=wrap;html=1;fontSize=10;width=110;height=20;" parent="1" vertex="1">
          <mxGeometry x="50" y="505" width="540" height="325" as="geometry" />
        </mxCell>
        <mxCell id="8myoIXHwX_xvSEYw4F4F-17" value="TransmittingARS" style="html=1;align=center;verticalAlign=top;rounded=1;absoluteArcSize=1;arcSize=10;dashed=0;fillColor=#f5f5f5;fontColor=#333333;strokeColor=#666666;" parent="1" vertex="1">
          <mxGeometry x="320" y="540" width="130" height="40" as="geometry" />
        </mxCell>
        <mxCell id="ifaudsmOs5MDKRNVzAqA-16" style="edgeStyle=orthogonalEdgeStyle;rounded=0;orthogonalLoop=1;jettySize=auto;html=1;" parent="1" source="ifaudsmOs5MDKRNVzAqA-17" target="ifaudsmOs5MDKRNVzAqA-20" edge="1">
          <mxGeometry relative="1" as="geometry" />
        </mxCell>
        <mxCell id="ifaudsmOs5MDKRNVzAqA-17" value="" style="ellipse;fillColor=strokeColor;" parent="1" vertex="1">
          <mxGeometry x="630" y="545" width="30" height="30" as="geometry" />
        </mxCell>
        <mxCell id="ifaudsmOs5MDKRNVzAqA-18" style="edgeStyle=orthogonalEdgeStyle;rounded=0;orthogonalLoop=1;jettySize=auto;html=1;fontSize=10;" parent="1" source="ifaudsmOs5MDKRNVzAqA-20" target="ifaudsmOs5MDKRNVzAqA-30" edge="1">
          <mxGeometry relative="1" as="geometry">
            <mxPoint x="900" y="585" as="targetPoint" />
          </mxGeometry>
        </mxCell>
        <mxCell id="ifaudsmOs5MDKRNVzAqA-19" value="[m == contentionSlots]" style="edgeLabel;html=1;align=center;verticalAlign=middle;resizable=0;points=[];" parent="ifaudsmOs5MDKRNVzAqA-18" vertex="1" connectable="0">
          <mxGeometry x="-0.2567" y="1" relative="1" as="geometry">
            <mxPoint x="-1" as="offset" />
          </mxGeometry>
        </mxCell>
        <mxCell id="ifaudsmOs5MDKRNVzAqA-20" value="ListeningARS" style="html=1;align=center;verticalAlign=top;rounded=1;absoluteArcSize=1;arcSize=10;dashed=0;fillColor=#f5f5f5;fontColor=#333333;strokeColor=#666666;" parent="1" vertex="1">
          <mxGeometry x="710" y="540" width="130" height="40" as="geometry" />
        </mxCell>
        <mxCell id="ifaudsmOs5MDKRNVzAqA-21" value="MSDQ Satellite" style="shape=umlFrame;whiteSpace=wrap;html=1;fontSize=10;width=110;height=20;" parent="1" vertex="1">
          <mxGeometry x="620" y="505" width="470" height="325" as="geometry" />
        </mxCell>
        <mxCell id="ifaudsmOs5MDKRNVzAqA-22" style="edgeStyle=orthogonalEdgeStyle;rounded=0;orthogonalLoop=1;jettySize=auto;html=1;exitX=1;exitY=0.5;exitDx=0;exitDy=0;entryX=0.75;entryY=1;entryDx=0;entryDy=0;" parent="1" source="ifaudsmOs5MDKRNVzAqA-23" target="ifaudsmOs5MDKRNVzAqA-25" edge="1">
          <mxGeometry relative="1" as="geometry">
            <Array as="points">
              <mxPoint x="1040" y="760" />
            </Array>
          </mxGeometry>
        </mxCell>
        <mxCell id="ifaudsmOs5MDKRNVzAqA-23" value="ListeningData" style="html=1;align=center;verticalAlign=top;rounded=1;absoluteArcSize=1;arcSize=10;dashed=0;fillColor=#f5f5f5;fontColor=#333333;strokeColor=#666666;" parent="1" vertex="1">
          <mxGeometry x="710" y="740" width="130" height="40" as="geometry" />
        </mxCell>
        <mxCell id="ifaudsmOs5MDKRNVzAqA-24" style="edgeStyle=orthogonalEdgeStyle;rounded=0;orthogonalLoop=1;jettySize=auto;html=1;" parent="1" source="ifaudsmOs5MDKRNVzAqA-25" target="ifaudsmOs5MDKRNVzAqA-20" edge="1">
          <mxGeometry relative="1" as="geometry" />
        </mxCell>
        <mxCell id="ifaudsmOs5MDKRNVzAqA-25" value="BroadcastFBP" style="html=1;align=center;verticalAlign=top;rounded=1;absoluteArcSize=1;arcSize=10;dashed=0;fillColor=#f5f5f5;fontColor=#333333;strokeColor=#666666;" parent="1" vertex="1">
          <mxGeometry x="942.5" y="540" width="130" height="40" as="geometry" />
        </mxCell>
        <mxCell id="ifaudsmOs5MDKRNVzAqA-28" style="edgeStyle=orthogonalEdgeStyle;rounded=0;orthogonalLoop=1;jettySize=auto;html=1;" parent="1" source="ifaudsmOs5MDKRNVzAqA-30" target="ifaudsmOs5MDKRNVzAqA-23" edge="1">
          <mxGeometry relative="1" as="geometry" />
        </mxCell>
        <mxCell id="ifaudsmOs5MDKRNVzAqA-29" value="[len(dtq) &amp;gt; 0]" style="edgeLabel;html=1;align=center;verticalAlign=middle;resizable=0;points=[];" parent="ifaudsmOs5MDKRNVzAqA-28" vertex="1" connectable="0">
          <mxGeometry x="-0.4483" relative="1" as="geometry">
            <mxPoint x="4" y="3" as="offset" />
          </mxGeometry>
        </mxCell>
        <mxCell id="ifaudsmOs5MDKRNVzAqA-33" style="edgeStyle=orthogonalEdgeStyle;rounded=0;orthogonalLoop=1;jettySize=auto;html=1;exitX=1;exitY=0.5;exitDx=0;exitDy=0;entryX=0.25;entryY=1;entryDx=0;entryDy=0;" parent="1" source="ifaudsmOs5MDKRNVzAqA-30" target="ifaudsmOs5MDKRNVzAqA-25" edge="1">
          <mxGeometry relative="1" as="geometry" />
        </mxCell>
        <mxCell id="ifaudsmOs5MDKRNVzAqA-34" value="[else]" style="edgeLabel;html=1;align=center;verticalAlign=middle;resizable=0;points=[];" parent="ifaudsmOs5MDKRNVzAqA-33" vertex="1" connectable="0">
          <mxGeometry x="-0.4905" y="2" relative="1" as="geometry">
            <mxPoint x="-16" y="2" as="offset" />
          </mxGeometry>
        </mxCell>
        <mxCell id="ifaudsmOs5MDKRNVzAqA-30" value="" style="rhombus;whiteSpace=wrap;html=1;fillColor=#f5f5f5;fontColor=#333333;strokeColor=#666666;" parent="1" vertex="1">
          <mxGeometry x="762.5" y="650" width="25" height="25" as="geometry" />
        </mxCell>
        <mxCell id="5c6gxqz3gqIOhlxGx4iG-1" value="&lt;font style=&quot;font-size: 14px;&quot; face=&quot;Times New Roman&quot;&gt;DQ Satellite&lt;/font&gt;" style="shape=umlFrame;whiteSpace=wrap;html=1;fontSize=14;width=110;height=20;" vertex="1" parent="1">
          <mxGeometry x="565" y="90" width="310" height="277.5" as="geometry" />
        </mxCell>
        <mxCell id="5c6gxqz3gqIOhlxGx4iG-2" value="&lt;font style=&quot;font-size: 14px;&quot; face=&quot;Times New Roman&quot;&gt;DQ Node&lt;/font&gt;" style="shape=umlFrame;whiteSpace=wrap;html=1;fontSize=14;width=110;height=20;" vertex="1" parent="1">
          <mxGeometry x="95" y="90" width="460" height="277.5" as="geometry" />
        </mxCell>
        <mxCell id="5c6gxqz3gqIOhlxGx4iG-3" style="edgeStyle=orthogonalEdgeStyle;rounded=0;orthogonalLoop=1;jettySize=auto;html=1;fontFamily=Times New Roman;fontSize=14;" edge="1" parent="1" source="5c6gxqz3gqIOhlxGx4iG-4" target="5c6gxqz3gqIOhlxGx4iG-11">
          <mxGeometry relative="1" as="geometry" />
        </mxCell>
        <mxCell id="5c6gxqz3gqIOhlxGx4iG-4" value="" style="ellipse;fillColor=strokeColor;fontFamily=Times New Roman;fontSize=14;" vertex="1" parent="1">
          <mxGeometry x="105" y="242.5" width="30" height="30" as="geometry" />
        </mxCell>
        <mxCell id="5c6gxqz3gqIOhlxGx4iG-5" style="edgeStyle=orthogonalEdgeStyle;rounded=0;orthogonalLoop=1;jettySize=auto;html=1;exitX=0.5;exitY=0;exitDx=0;exitDy=0;fontFamily=Times New Roman;fontSize=14;" edge="1" parent="1" source="5c6gxqz3gqIOhlxGx4iG-11" target="5c6gxqz3gqIOhlxGx4iG-15">
          <mxGeometry relative="1" as="geometry" />
        </mxCell>
        <mxCell id="5c6gxqz3gqIOhlxGx4iG-6" value="[!queue.isEmpty()&lt;br style=&quot;font-size: 14px;&quot;&gt;&amp;amp;&amp;amp; (!crq.contains(id) || crqPos == 0)&lt;br style=&quot;font-size: 14px;&quot;&gt;&amp;amp;&amp;amp; !crq.contains(id)]" style="edgeLabel;html=1;align=left;verticalAlign=middle;resizable=0;points=[];fontFamily=Times New Roman;fontSize=14;" vertex="1" connectable="0" parent="5c6gxqz3gqIOhlxGx4iG-5">
          <mxGeometry x="-0.3187" relative="1" as="geometry">
            <mxPoint x="-85" y="-11" as="offset" />
          </mxGeometry>
        </mxCell>
        <mxCell id="5c6gxqz3gqIOhlxGx4iG-7" style="edgeStyle=orthogonalEdgeStyle;rounded=0;orthogonalLoop=1;jettySize=auto;html=1;fontFamily=Times New Roman;fontSize=14;" edge="1" parent="1" source="5c6gxqz3gqIOhlxGx4iG-11" target="5c6gxqz3gqIOhlxGx4iG-17">
          <mxGeometry relative="1" as="geometry">
            <Array as="points">
              <mxPoint x="230" y="312.5" />
              <mxPoint x="230" y="312.5" />
            </Array>
          </mxGeometry>
        </mxCell>
        <mxCell id="5c6gxqz3gqIOhlxGx4iG-8" value="[dtqPos == 0]" style="edgeLabel;html=1;align=center;verticalAlign=middle;resizable=0;points=[];fontFamily=Times New Roman;fontSize=14;" vertex="1" connectable="0" parent="5c6gxqz3gqIOhlxGx4iG-7">
          <mxGeometry x="-0.5795" y="1" relative="1" as="geometry">
            <mxPoint x="64" y="-7" as="offset" />
          </mxGeometry>
        </mxCell>
        <mxCell id="5c6gxqz3gqIOhlxGx4iG-9" style="edgeStyle=orthogonalEdgeStyle;rounded=0;orthogonalLoop=1;jettySize=auto;html=1;fontFamily=Times New Roman;fontSize=14;" edge="1" parent="1" source="5c6gxqz3gqIOhlxGx4iG-11" target="5c6gxqz3gqIOhlxGx4iG-20">
          <mxGeometry relative="1" as="geometry" />
        </mxCell>
        <mxCell id="5c6gxqz3gqIOhlxGx4iG-10" value="[else]" style="edgeLabel;html=1;align=center;verticalAlign=middle;resizable=0;points=[];fontFamily=Times New Roman;fontSize=14;" vertex="1" connectable="0" parent="5c6gxqz3gqIOhlxGx4iG-9">
          <mxGeometry x="-0.4844" y="1" relative="1" as="geometry">
            <mxPoint x="2" y="-9" as="offset" />
          </mxGeometry>
        </mxCell>
        <mxCell id="5c6gxqz3gqIOhlxGx4iG-11" value="Idle" style="html=1;align=center;verticalAlign=middle;rounded=1;absoluteArcSize=1;arcSize=10;dashed=0;fillColor=#f5f5f5;fontColor=#333333;strokeColor=#666666;fontFamily=Times New Roman;fontSize=14;" vertex="1" parent="1">
          <mxGeometry x="165" y="237.5" width="90" height="40" as="geometry" />
        </mxCell>
        <mxCell id="5c6gxqz3gqIOhlxGx4iG-12" style="edgeStyle=orthogonalEdgeStyle;rounded=0;orthogonalLoop=1;jettySize=auto;html=1;fontFamily=Times New Roman;fontSize=14;" edge="1" parent="1" source="5c6gxqz3gqIOhlxGx4iG-21" target="5c6gxqz3gqIOhlxGx4iG-20">
          <mxGeometry relative="1" as="geometry">
            <Array as="points">
              <mxPoint x="410" y="177.5" />
              <mxPoint x="410" y="177.5" />
            </Array>
          </mxGeometry>
        </mxCell>
        <mxCell id="5c6gxqz3gqIOhlxGx4iG-13" style="edgeStyle=orthogonalEdgeStyle;rounded=0;orthogonalLoop=1;jettySize=auto;html=1;fontFamily=Times New Roman;fontSize=14;" edge="1" parent="1" source="5c6gxqz3gqIOhlxGx4iG-15" target="5c6gxqz3gqIOhlxGx4iG-21">
          <mxGeometry relative="1" as="geometry" />
        </mxCell>
        <mxCell id="5c6gxqz3gqIOhlxGx4iG-14" value="[time() == slot]" style="edgeLabel;html=1;align=center;verticalAlign=middle;resizable=0;points=[];fontFamily=Times New Roman;fontSize=14;" vertex="1" connectable="0" parent="5c6gxqz3gqIOhlxGx4iG-13">
          <mxGeometry x="-0.3396" y="4" relative="1" as="geometry">
            <mxPoint x="18" y="-6" as="offset" />
          </mxGeometry>
        </mxCell>
        <mxCell id="5c6gxqz3gqIOhlxGx4iG-15" value="Reserve" style="html=1;align=center;verticalAlign=middle;rounded=1;absoluteArcSize=1;arcSize=10;dashed=0;fillColor=#dae8fc;strokeColor=#6c8ebf;fontFamily=Times New Roman;fontSize=14;" vertex="1" parent="1">
          <mxGeometry x="165" y="117.5" width="90" height="40" as="geometry" />
        </mxCell>
        <mxCell id="5c6gxqz3gqIOhlxGx4iG-16" style="edgeStyle=orthogonalEdgeStyle;rounded=0;orthogonalLoop=1;jettySize=auto;html=1;exitX=0.5;exitY=0;exitDx=0;exitDy=0;entryX=0.5;entryY=1;entryDx=0;entryDy=0;fontSize=14;" edge="1" parent="1" source="5c6gxqz3gqIOhlxGx4iG-17" target="5c6gxqz3gqIOhlxGx4iG-20">
          <mxGeometry relative="1" as="geometry" />
        </mxCell>
        <mxCell id="5c6gxqz3gqIOhlxGx4iG-17" value="TransmitData" style="html=1;align=center;verticalAlign=middle;rounded=1;absoluteArcSize=1;arcSize=10;dashed=0;fillColor=#d5e8d4;strokeColor=#82b366;fontFamily=Times New Roman;fontSize=14;" vertex="1" parent="1">
          <mxGeometry x="365" y="297.5" width="90" height="40" as="geometry" />
        </mxCell>
        <mxCell id="5c6gxqz3gqIOhlxGx4iG-18" style="edgeStyle=orthogonalEdgeStyle;rounded=0;orthogonalLoop=1;jettySize=auto;html=1;fontFamily=Times New Roman;fontSize=14;" edge="1" parent="1" source="5c6gxqz3gqIOhlxGx4iG-20" target="5c6gxqz3gqIOhlxGx4iG-11">
          <mxGeometry relative="1" as="geometry">
            <Array as="points">
              <mxPoint x="545" y="257.5" />
              <mxPoint x="545" y="357.5" />
              <mxPoint x="185" y="357.5" />
            </Array>
          </mxGeometry>
        </mxCell>
        <mxCell id="5c6gxqz3gqIOhlxGx4iG-19" value="/ treeSplitting" style="edgeLabel;html=1;align=center;verticalAlign=middle;resizable=0;points=[];fontFamily=Times New Roman;fontSize=14;" vertex="1" connectable="0" parent="5c6gxqz3gqIOhlxGx4iG-18">
          <mxGeometry x="0.0761" y="3" relative="1" as="geometry">
            <mxPoint x="108" y="-113" as="offset" />
          </mxGeometry>
        </mxCell>
        <mxCell id="5c6gxqz3gqIOhlxGx4iG-20" value="ListenFBP" style="html=1;align=center;verticalAlign=middle;rounded=1;absoluteArcSize=1;arcSize=10;dashed=0;fillColor=#ffe6cc;strokeColor=#d79b00;fontFamily=Times New Roman;fontSize=14;" vertex="1" parent="1">
          <mxGeometry x="365" y="237.5" width="90" height="40" as="geometry" />
        </mxCell>
        <mxCell id="5c6gxqz3gqIOhlxGx4iG-21" value="TransmitARS" style="html=1;align=center;verticalAlign=middle;rounded=1;absoluteArcSize=1;arcSize=10;dashed=0;fillColor=#dae8fc;strokeColor=#6c8ebf;fontFamily=Times New Roman;fontSize=14;" vertex="1" parent="1">
          <mxGeometry x="365" y="117.5" width="90" height="40" as="geometry" />
        </mxCell>
        <mxCell id="5c6gxqz3gqIOhlxGx4iG-22" style="edgeStyle=orthogonalEdgeStyle;rounded=0;orthogonalLoop=1;jettySize=auto;html=1;fontFamily=Times New Roman;fontSize=14;" edge="1" parent="1" source="5c6gxqz3gqIOhlxGx4iG-23" target="5c6gxqz3gqIOhlxGx4iG-26">
          <mxGeometry relative="1" as="geometry" />
        </mxCell>
        <mxCell id="5c6gxqz3gqIOhlxGx4iG-23" value="" style="ellipse;fillColor=strokeColor;fontFamily=Times New Roman;fontSize=14;" vertex="1" parent="1">
          <mxGeometry x="575" y="125" width="30" height="30" as="geometry" />
        </mxCell>
        <mxCell id="5c6gxqz3gqIOhlxGx4iG-24" style="edgeStyle=orthogonalEdgeStyle;rounded=0;orthogonalLoop=1;jettySize=auto;html=1;fontSize=14;fontFamily=Times New Roman;" edge="1" parent="1" source="5c6gxqz3gqIOhlxGx4iG-26" target="5c6gxqz3gqIOhlxGx4iG-35">
          <mxGeometry relative="1" as="geometry">
            <mxPoint x="825" y="170" as="targetPoint" />
          </mxGeometry>
        </mxCell>
        <mxCell id="5c6gxqz3gqIOhlxGx4iG-25" value="[time() == m * T_ARS]" style="edgeLabel;html=1;align=center;verticalAlign=middle;resizable=0;points=[];fontFamily=Times New Roman;fontSize=14;" vertex="1" connectable="0" parent="5c6gxqz3gqIOhlxGx4iG-24">
          <mxGeometry x="-0.2567" y="1" relative="1" as="geometry">
            <mxPoint x="-1" y="1" as="offset" />
          </mxGeometry>
        </mxCell>
        <mxCell id="5c6gxqz3gqIOhlxGx4iG-26" value="ListenARS" style="html=1;align=center;verticalAlign=middle;rounded=1;absoluteArcSize=1;arcSize=10;dashed=0;fillColor=#dae8fc;strokeColor=#6c8ebf;fontFamily=Times New Roman;fontSize=14;" vertex="1" parent="1">
          <mxGeometry x="635" y="120" width="90" height="40" as="geometry" />
        </mxCell>
        <mxCell id="5c6gxqz3gqIOhlxGx4iG-27" style="edgeStyle=orthogonalEdgeStyle;rounded=0;orthogonalLoop=1;jettySize=auto;html=1;exitX=1;exitY=0.5;exitDx=0;exitDy=0;entryX=0.726;entryY=0.982;entryDx=0;entryDy=0;fontFamily=Times New Roman;fontSize=14;entryPerimeter=0;" edge="1" parent="1" source="5c6gxqz3gqIOhlxGx4iG-28" target="5c6gxqz3gqIOhlxGx4iG-30">
          <mxGeometry relative="1" as="geometry">
            <Array as="points">
              <mxPoint x="840" y="320" />
              <mxPoint x="840" y="164" />
            </Array>
            <mxPoint x="797.47" y="285" as="sourcePoint" />
            <mxPoint x="997.47" y="130" as="targetPoint" />
          </mxGeometry>
        </mxCell>
        <mxCell id="5c6gxqz3gqIOhlxGx4iG-28" value="ListenData" style="html=1;align=center;verticalAlign=middle;rounded=1;absoluteArcSize=1;arcSize=10;dashed=0;fillColor=#d5e8d4;strokeColor=#82b366;fontFamily=Times New Roman;fontSize=14;" vertex="1" parent="1">
          <mxGeometry x="635" y="317.5" width="90" height="40" as="geometry" />
        </mxCell>
        <mxCell id="5c6gxqz3gqIOhlxGx4iG-29" style="edgeStyle=orthogonalEdgeStyle;rounded=0;orthogonalLoop=1;jettySize=auto;html=1;fontFamily=Times New Roman;fontSize=14;" edge="1" parent="1" source="5c6gxqz3gqIOhlxGx4iG-30" target="5c6gxqz3gqIOhlxGx4iG-26">
          <mxGeometry relative="1" as="geometry" />
        </mxCell>
        <mxCell id="5c6gxqz3gqIOhlxGx4iG-30" value="BroadcastFBP" style="html=1;align=center;verticalAlign=middle;rounded=1;absoluteArcSize=1;arcSize=10;dashed=0;fillColor=#ffe6cc;strokeColor=#d79b00;fontFamily=Times New Roman;fontSize=14;" vertex="1" parent="1">
          <mxGeometry x="775" y="120" width="90" height="40" as="geometry" />
        </mxCell>
        <mxCell id="5c6gxqz3gqIOhlxGx4iG-31" style="edgeStyle=orthogonalEdgeStyle;rounded=0;orthogonalLoop=1;jettySize=auto;html=1;fontFamily=Times New Roman;fontSize=14;" edge="1" parent="1" source="5c6gxqz3gqIOhlxGx4iG-35" target="5c6gxqz3gqIOhlxGx4iG-28">
          <mxGeometry relative="1" as="geometry" />
        </mxCell>
        <mxCell id="5c6gxqz3gqIOhlxGx4iG-32" value="[len(dtq) &amp;gt; 0]" style="edgeLabel;html=1;align=center;verticalAlign=middle;resizable=0;points=[];fontFamily=Times New Roman;fontSize=14;" vertex="1" connectable="0" parent="5c6gxqz3gqIOhlxGx4iG-31">
          <mxGeometry x="-0.4483" relative="1" as="geometry">
            <mxPoint x="4" y="3" as="offset" />
          </mxGeometry>
        </mxCell>
        <mxCell id="5c6gxqz3gqIOhlxGx4iG-33" style="edgeStyle=orthogonalEdgeStyle;rounded=0;orthogonalLoop=1;jettySize=auto;html=1;exitX=1;exitY=0.5;exitDx=0;exitDy=0;entryX=0.25;entryY=1;entryDx=0;entryDy=0;fontFamily=Times New Roman;fontSize=14;" edge="1" parent="1" source="5c6gxqz3gqIOhlxGx4iG-35" target="5c6gxqz3gqIOhlxGx4iG-30">
          <mxGeometry relative="1" as="geometry" />
        </mxCell>
        <mxCell id="5c6gxqz3gqIOhlxGx4iG-34" value="[else]" style="edgeLabel;html=1;align=center;verticalAlign=middle;resizable=0;points=[];fontFamily=Times New Roman;fontSize=14;" vertex="1" connectable="0" parent="5c6gxqz3gqIOhlxGx4iG-33">
          <mxGeometry x="-0.4905" y="2" relative="1" as="geometry">
            <mxPoint x="-23" y="-9" as="offset" />
          </mxGeometry>
        </mxCell>
        <mxCell id="5c6gxqz3gqIOhlxGx4iG-35" value="" style="rhombus;whiteSpace=wrap;html=1;fillColor=#f5f5f5;fontColor=#333333;strokeColor=#666666;fontFamily=Times New Roman;fontSize=14;" vertex="1" parent="1">
          <mxGeometry x="667.5" y="237.5" width="25" height="25" as="geometry" />
        </mxCell>
      </root>
    </mxGraphModel>
  </diagram>
</mxfile>
